<?xml version="1.0" encoding="UTF-8" standalone="no"?>
<!DOCTYPE svg PUBLIC "-//W3C//DTD SVG 20010904//EN"
              "http://www.w3.org/TR/2001/REC-SVG-20010904/DTD/svg10.dtd">

<svg version="1.2"
     baseProfile="tiny-ps"
     xmlns="http://www.w3.org/2000/svg"
     width="0.999992in" height="0.999992in"
     viewBox="0 0 640 640"
     xml:space="preserve">
  <g>
    <title>NiceCode</title>
    <path id="bg" d="M0 0 L 640 0 L 640 640 L 0 640" fill="#f0b446" stroke-width="0"/>
    <path id="char" fill="black" stroke-width="0"
          d="M 155.75,209.25
           C 155.75,218.70 153.23,226.70 148.20,233.27
             143.17,239.83 135.13,243.11 124.09,243.11
             113.06,243.11 104.91,239.98 99.64,233.73
             94.36,227.48 91.72,219.93 91.72,211.09
             91.72,197.12 98.28,186.14 111.41,178.17
             124.53,170.20 145.51,166.20 174.34,166.20
             174.34,166.20 188.50,166.20 188.50,166.20
             188.50,166.20 242.05,252.12 242.05,252.12
             242.05,252.12 242.05,188.28 242.05,188.28
             242.05,188.28 226.05,188.28 226.05,188.28
             226.05,188.28 226.05,166.20 226.05,166.20
             226.05,166.20 283.81,166.20 283.81,166.20
             283.81,166.20 283.81,188.28 283.81,188.28
             283.81,188.28 265.97,188.28 265.97,188.28
             265.97,188.28 265.97,295.00 265.97,295.00
             265.97,295.00 243.34,295.00 243.34,295.00
             243.34,295.00 188.14,206.86 188.14,206.86
             188.14,206.86 188.14,272.92 188.14,272.92
             188.14,272.92 204.14,272.92 204.14,272.92
             204.14,272.92 204.14,295.00 204.14,295.00
             204.14,295.00 146.38,295.00 146.38,295.00
             146.38,295.00 146.38,272.92 146.38,272.92
             146.38,272.92 164.22,272.92 164.22,272.92
             164.22,272.92 164.22,188.47 164.22,188.47
             145.81,188.96 132.96,190.95 125.66,194.45
             118.36,197.95 114.72,203.25 114.72,210.36
             114.72,217.48 117.85,221.03 124.11,221.03
             129.87,221.03 132.75,217.11 132.75,209.25
             132.75,209.25 155.75,209.25 155.75,209.25 Z
           M 296.55,223.23
           C 296.55,223.23 296.55,203.00 296.55,203.00
             296.55,203.00 334.62,203.00 334.62,203.00
             334.62,203.00 334.62,274.77 334.62,274.77
             334.62,274.77 350.64,274.77 350.64,274.77
             350.64,274.77 350.64,295.00 350.64,295.00
             350.64,295.00 296.36,295.00 296.36,295.00
             296.36,295.00 296.36,274.77 296.36,274.77
             296.36,274.77 310.72,274.77 310.72,274.77
             310.72,274.77 310.72,223.23 310.72,223.23
             310.72,223.23 296.55,223.23 296.55,223.23 Z
           M 322.67,193.98
           C 318.87,193.98 315.77,192.64 313.38,189.94
             310.99,187.24 309.80,183.99 309.80,180.19
             309.80,176.39 311.08,173.11 313.66,170.34
             316.23,167.59 319.45,166.20 323.31,166.20
             327.18,166.20 330.27,167.55 332.61,170.25
             334.94,172.95 336.11,176.20 336.11,180.00
             336.11,183.80 334.82,187.09 332.23,189.84
             329.66,192.61 326.47,193.98 322.67,193.98 Z
           M 446.31,284.52
           C 436.75,292.73 424.66,296.84 410.06,296.84
             395.47,296.84 384.21,292.34 376.30,283.33
             368.39,274.31 364.44,262.87 364.44,249.00
             364.44,235.14 368.39,223.70 376.30,214.69
             384.21,205.67 394.77,201.16 407.95,201.16
             421.14,201.16 432.46,203.67 441.91,208.70
             441.91,208.70 441.91,238.88 441.91,238.88
             441.91,238.88 420.75,238.88 420.75,238.88
             420.75,238.88 420.75,224.72 420.75,224.72
             417.44,223.73 413.69,223.23 409.52,223.23
             402.89,223.23 397.71,225.63 393.97,230.42
             390.23,235.20 388.36,241.40 388.36,249.00
             388.36,256.61 390.23,262.80 393.97,267.59
             397.71,272.38 402.43,274.77 408.14,274.77
             413.85,274.77 418.63,274.21 422.48,273.11
             426.35,272.01 429.05,271.00 430.58,270.08
             432.12,269.15 434.18,267.77 436.75,265.92
             436.75,265.92 446.31,284.52 446.31,284.52 Z
           M 544.55,248.27
           C 544.55,248.27 544.55,258.02 544.55,258.02
             544.55,258.02 482.36,258.02 482.36,258.02
             482.72,262.92 484.77,266.95 488.52,270.08
             492.27,273.20 496.65,274.77 501.67,274.77
             506.70,274.77 510.97,274.40 514.47,273.66
             517.97,272.92 520.42,272.25 521.83,271.64
             523.23,271.03 525.35,269.92 528.17,268.31
             528.17,268.31 532.59,265.92 532.59,265.92
             532.59,265.92 542.16,284.52 542.16,284.52
             532.10,292.73 519.59,296.84 504.62,296.84
             489.66,296.84 478.21,292.34 470.30,283.33
             462.39,274.31 458.44,262.87 458.44,249.00
             458.44,235.14 462.39,223.70 470.30,214.69
             478.21,205.67 489.01,201.16 502.69,201.16
             516.36,201.16 526.76,205.57 533.88,214.41
             540.99,223.24 544.55,234.53 544.55,248.27 Z
           M 520.62,239.44
           C 520.13,234.53 518.45,230.61 515.56,227.66
             512.69,224.71 508.58,223.23 503.23,223.23
             497.90,223.23 493.48,224.74 489.98,227.75
             486.49,230.75 484.20,234.65 483.09,239.44
             483.09,239.44 520.62,239.44 520.62,239.44 Z
           M 217.61,386.92
           C 217.61,395.76 214.97,403.30 209.69,409.56
             204.41,415.81 196.26,418.94 185.22,418.94
             174.18,418.94 166.14,415.66 161.11,409.09
             156.09,402.53 153.58,394.53 153.58,385.08
             153.58,385.08 176.58,385.08 176.58,385.08
             176.58,392.93 179.46,396.86 185.22,396.86
             189.63,396.86 191.84,393.55 191.84,386.92
             191.84,382.02 189.94,378.03 186.14,374.97
             182.34,371.90 177.98,370.36 173.08,370.36
             161.92,370.36 153.00,374.44 146.31,382.59
             139.62,390.75 136.28,401.09 136.28,413.61
             136.28,426.12 139.62,436.45 146.31,444.61
             153.00,452.77 162.29,456.84 174.19,456.84
             186.08,456.84 197.06,451.57 207.12,441.02
             207.12,441.02 221.11,458.50 221.11,458.50
             209.69,472.73 194.08,479.84 174.27,479.84
             154.46,479.84 139.04,473.74 128.00,461.53
             116.96,449.32 111.44,433.47 111.44,413.97
             111.44,394.47 116.96,378.50 128.00,366.05
             139.04,353.59 154.07,347.36 173.08,347.36
             184.97,347.36 195.37,351.04 204.27,358.41
             213.16,365.76 217.61,375.27 217.61,386.92 Z
           M 245.77,466.33
           C 237.55,457.31 233.44,445.87 233.44,432.00
             233.44,418.14 237.55,406.70 245.77,397.69
             253.98,388.67 265.52,384.16 280.36,384.16
             295.20,384.16 306.73,388.67 314.95,397.69
             323.17,406.70 327.28,418.14 327.28,432.00
             327.28,445.87 323.17,457.31 314.95,466.33
             306.73,475.34 295.20,479.84 280.36,479.84
             265.52,479.84 253.98,475.34 245.77,466.33 Z
           M 263.42,413.52
           C 259.38,418.36 257.36,424.52 257.36,432.00
             257.36,439.48 259.38,445.65 263.42,450.50
             267.47,455.34 273.12,457.77 280.36,457.77
             287.60,457.77 293.24,455.34 297.28,450.50
             301.33,445.65 303.36,439.48 303.36,432.00
             303.36,424.52 301.33,418.36 297.28,413.52
             293.24,408.66 287.60,406.23 280.36,406.23
             273.12,406.23 267.47,408.66 263.42,413.52 Z
           M 428.08,340.00
           C 428.08,340.00 428.08,458.69 428.08,458.69
             428.08,458.69 443.17,458.69 443.17,458.69
             443.17,458.69 443.17,474.69 443.17,474.69
             437.89,477.51 431.27,478.92 423.30,478.92
             411.15,478.92 404.77,475.24 404.16,467.88
             398.52,475.86 391.29,479.84 382.45,479.84
             369.94,479.84 360.31,475.40 353.56,466.50
             346.81,457.61 343.44,446.20 343.44,432.28
             343.44,418.36 347.33,406.86 355.12,397.78
             362.91,388.70 374.11,384.16 388.70,384.16
             392.87,384.16 398.02,384.53 404.16,385.27
             404.16,385.27 404.16,360.23 404.16,360.23
             404.16,360.23 389.98,360.23 389.98,360.23
             389.98,360.23 389.98,340.00 389.98,340.00
             389.98,340.00 428.08,340.00 428.08,340.00 Z
           M 367.36,431.55
           C 367.36,439.21 368.92,445.50 372.05,450.41
             375.18,455.31 379.50,457.77 385.02,457.77
             390.54,457.77 395.10,454.89 398.72,449.12
             402.34,443.36 404.16,436.42 404.16,428.31
             404.16,428.31 404.16,409.38 404.16,409.38
             399.38,407.28 394.65,406.23 389.98,406.23
             383.12,406.23 377.63,408.54 373.52,413.14
             369.41,417.75 367.36,423.88 367.36,431.55 Z
           M 540.55,431.27
           C 540.55,431.27 540.55,441.02 540.55,441.02
             540.55,441.02 478.36,441.02 478.36,441.02
             478.72,445.92 480.77,449.95 484.52,453.08
             488.27,456.20 492.65,457.77 497.67,457.77
             502.70,457.77 506.97,457.40 510.47,456.66
             513.97,455.92 516.42,455.25 517.83,454.64
             519.23,454.03 521.35,452.92 524.17,451.31
             524.17,451.31 528.59,448.92 528.59,448.92
             528.59,448.92 538.16,467.52 538.16,467.52
             528.10,475.73 515.59,479.84 500.62,479.84
             485.66,479.84 474.21,475.34 466.30,466.33
             458.39,457.31 454.44,445.87 454.44,432.00
             454.44,418.14 458.39,406.70 466.30,397.69
             474.21,388.67 485.01,384.16 498.69,384.16
             512.36,384.16 522.76,388.57 529.88,397.41
             536.99,406.24 540.55,417.53 540.55,431.27 Z
           M 516.62,422.44
           C 516.13,417.53 514.45,413.61 511.56,410.66
             508.69,407.71 504.58,406.23 499.23,406.23
             493.90,406.23 489.48,407.74 485.98,410.75
             482.49,413.75 480.20,417.65 479.09,422.44
             479.09,422.44 516.62,422.44 516.62,422.44 Z" />
  </g>
</svg>
